<svg width="104" height="105" fill="none" xmlns="http://www.w3.org/2000/svg">
  <path d="M103.379 75.475v.309c-.084 7.674-3.137 14.844-8.626 20.221-11.512 11.259-29.717 11.063-40.808-.252L8.18 48.98C-2.883 37.665-2.715 19.43 8.628 8.34c11.511-11.259 29.716-11.063 40.808.252L95.2 55.366c5.293 5.405 8.206 12.547 8.206 20.081l-.028.028zM8.292 28.955a20.256 20.256 0 0 0 5.798 14.227l45.765 46.773a20.306 20.306 0 0 0 14.368 6.134 20.362 20.362 0 0 0 14.508-5.825c4.09-3.977 6.246-9.103 6.302-14.564v-.225a20.313 20.313 0 0 0-5.826-14.284L43.442 14.418c-7.87-8.038-20.838-8.178-28.904-.308-4.202 4.117-6.274 9.495-6.274 14.844h.028z" fill="#BFE7E1"/>
  <path d="M29.694 65.72l5.8 5.924 35.905-35.15-5.799-5.923L29.694 65.72zm4.085-20.55c0 1.065-.42 2.157-1.26 2.97-1.625 1.596-4.258 1.568-5.882-.056l-7.338-7.479c-1.597-1.624-1.569-4.257.056-5.881 1.624-1.597 4.257-1.569 5.881.056l7.338 7.478a4.157 4.157 0 0 1 1.177 2.913h.028z" fill="#BFE7E1"/>
</svg>
